trial_4_ID.mot
nRows=5
nColumns=42

name trial_4_ID.mot
datacolumns 42
datarows 5
range 6.0000000000 6.0400000000
endheader
time	pelvis_tilt_moment	pelvis_list_moment	pelvis_rotation_moment	pelvis_tx_force	pelvis_ty_force	pelvis_tz_force	hip_flexion_r_moment	hip_adduction_r_moment	hip_rotation_r_moment	knee_angle_r_moment	knee_vv_r_moment	knee_rot_r_moment	ankle_angle_r_moment	subtalar_angle_r_moment	mtp_angle_r_moment	hip_flexion_l_moment	hip_adduction_l_moment	hip_rotation_l_moment	knee_angle_l_moment	knee_vv_l_moment	knee_rot_l_moment	ankle_angle_l_moment	subtalar_angle_l_moment	mtp_angle_l_moment	lumbar_extension_moment	lumbar_bending_moment	lumbar_rotation_moment	arm_flex_r_moment	arm_add_r_moment	arm_rot_r_moment	elbow_flex_r_moment	pro_sup_r_moment	wrist_flex_r_moment	wrist_dev_r_moment	arm_flex_l_moment	arm_add_l_moment	arm_rot_l_moment	elbow_flex_l_moment	pro_sup_l_moment	wrist_flex_l_moment	wrist_dev_l_moment
        6.0000000000	      -14.7991815300	        0.2137224000	        3.2602744900	       -9.4453685400	      -11.8043988500	       20.2513410400	        5.3832688700	      -33.6100824900	        1.6916478700	      -17.7285579600	       -9.6908631700	        0.1674470900	      -67.3851514400	       18.4890814100	        0.0229288300	       -8.3339063700	        5.0973274000	       -0.9714107600	       -5.3488169800	       -2.9772672700	        1.0713134000	        6.1185508100	       -1.0150931900	        0.0312312100	        9.7241117400	       -0.5186643200	       -1.8643032700	       -0.9594738700	       -1.4052801400	        0.0667435700	       -0.0964718100	        0.0100827200	        0.0432532100	        0.0382882500	        0.5574837900	       -1.3694379200	       -0.0307166800	       -0.1952931400	       -0.0108760300	       -0.0373607800	       -0.0056723400	
        6.0100000000	      -12.5420113500	        0.6051310700	        4.0689048300	      -11.9319937800	       -8.9335720000	       19.9945798200	        5.9414650200	      -31.6364845500	        2.1232550300	      -17.0190018200	       -8.6964689400	        0.6602539400	      -67.6012979900	       18.4431473300	        0.0201601500	       -8.5176453000	        3.1083814800	       -1.2166685100	       -3.8101098100	       -2.0629638800	        1.3435327500	        6.9295922200	       -1.0989107300	        0.0390693800	       12.0961380600	        0.0497848000	       -1.5601724100	       -0.9914647100	       -1.4187289300	        0.0913963600	       -0.0940224600	        0.0138628200	        0.0477605300	        0.0400344300	        0.4694040100	       -1.2706068300	       -0.0332654000	       -0.1792983400	       -0.0109550100	       -0.0332829000	       -0.0068232200	
        6.0200000000	       -9.5395837700	        1.1535582900	        4.6588694600	      -14.4843747400	       -5.9080227700	       18.4893199400	        6.7236650800	      -29.0561825600	        2.5397615400	      -15.8735317800	       -7.5353656500	        1.1758204800	      -67.0683723800	       18.1866597400	        0.0169437100	       -9.0127692600	        0.5840238000	       -1.3708294800	       -2.0902780200	       -0.7892754700	        1.5889697100	        7.3927893300	       -1.0781529100	        0.0461356000	       15.1499733100	        0.5054460200	       -1.3365760500	       -1.0284739500	       -1.4225635200	        0.1166638700	       -0.0877321900	        0.0178098600	        0.0520206100	        0.0410461600	        0.3844985300	       -1.1977205000	       -0.0381670200	       -0.1670655900	       -0.0114711000	       -0.0298548400	       -0.0079536000	
        6.0300000000	       -6.0559081300	        2.1917844900	        4.7880198900	      -17.1133305300	       -2.7839125200	       15.6445365700	        7.5802782400	      -25.6604756500	        2.9078128700	      -14.2867482800	       -6.1500491600	        1.7041112800	      -65.6790950700	       17.6967589100	        0.0137387300	       -9.7136439000	       -2.3950435700	       -1.3899303400	       -0.1246416100	        0.8107530000	        1.7931248000	        7.5201471200	       -0.9581716600	        0.0518967200	       18.6473430100	        0.9557991900	       -1.2281839600	       -1.0785270700	       -1.4247413400	        0.1402101300	       -0.0836531100	        0.0217202500	        0.0554323400	        0.0416397000	        0.3106275500	       -1.1596683200	       -0.0457429500	       -0.1608012400	       -0.0124727900	       -0.0273601500	       -0.0088891100	
        6.0400000000	       -2.4887036400	        4.0771555400	        4.2619938800	      -19.7825725600	        0.4828621400	       11.4936913800	        8.3492371100	      -21.3246655100	        3.1867164500	      -12.2910868700	       -4.5076695000	        2.2321170400	      -63.3365643500	       16.9630012600	        0.0111846900	      -10.5031445400	       -5.7966391000	       -1.2470369700	        2.1342788400	        2.7127269700	        1.9511484500	        7.3774295800	       -0.7609379200	        0.0559582100	       22.2446010900	        1.5292231000	       -1.2614359800	       -1.1455933600	       -1.4347519600	        0.1589294500	       -0.0869491900	        0.0252607300	        0.0573313100	        0.0420225400	        0.2545734700	       -1.1595678500	       -0.0557646500	       -0.1616167100	       -0.0138997100	       -0.0258767400	       -0.0094942000	
